<svg width="64" height="64" viewBox="0 0 64 64" fill="none" xmlns="http://www.w3.org/2000/svg">
	<g clip-path="url(#clip0_9_5056)">
		<path d="M63.5631 60.924C63.5661 60.891 63.5841 60.863 63.5841 60.83C63.5841 60.56 63.4641 60.29 63.2641 60.1L63.1841 60.02C63.1771 60.016 63.1701 60.014 63.1631 60.01L60.9301 57.935C60.5271 57.56 59.8931 57.582 59.5171 57.987C59.1411 58.391 59.1641 59.024 59.5691 59.4L60.0321 59.831H56.9841V41.481C56.9841 40.921 56.5341 40.481 55.9841 40.481H51.5641C51.0041 40.481 50.5641 40.921 50.5641 41.481V59.831H46.9141V45.171C46.9141 44.611 46.4641 44.171 45.9141 44.171H41.4941C40.9341 44.171 40.4941 44.611 40.4941 45.171V59.831H36.8441V50.701C36.8441 50.151 36.3941 49.701 35.8441 49.701H31.4141C30.8641 49.701 30.4141 50.151 30.4141 50.701V59.831H26.7741V47.011C26.7741 46.461 26.3241 46.011 25.7741 46.011H21.3441C20.7941 46.011 20.3441 46.461 20.3441 47.011V59.831H16.6941V54.391C16.6941 53.841 16.2541 53.391 15.6941 53.391H11.2741C10.7241 53.391 10.2741 53.841 10.2741 54.391V59.831H4.58408V5.313L5.01708 5.779C5.39508 6.184 6.02708 6.207 6.43108 5.83C6.83508 5.454 6.85808 4.821 6.48208 4.417L4.31408 2.085C4.30508 2.074 4.29008 2.071 4.27908 2.061C4.24008 2.025 4.20108 1.99 4.15408 1.959C4.12408 1.929 4.08408 1.909 4.04408 1.889C4.03408 1.879 4.02408 1.879 4.01408 1.879C4.01308 1.878 4.01208 1.879 4.01008 1.878C3.97708 1.862 3.94208 1.854 3.90608 1.842C3.88808 1.837 3.86708 1.829 3.85408 1.829C3.80408 1.819 3.77408 1.809 3.72408 1.799C3.71408 1.799 3.70408 1.799 3.69408 1.789C3.65408 1.779 3.62408 1.769 3.58408 1.769C3.57408 1.769 3.55408 1.769 3.53408 1.779C3.42608 1.785 3.32408 1.811 3.22508 1.848C3.18608 1.862 3.15308 1.884 3.11508 1.903C3.07908 1.923 3.03908 1.935 3.00408 1.959C2.96808 1.988 2.93108 2.021 2.89508 2.054C2.88208 2.067 2.86208 2.071 2.85008 2.085L0.683077 4.417C0.307077 4.821 0.330077 5.454 0.735077 5.83C0.927077 6.009 1.17208 6.098 1.41608 6.098C1.68408 6.098 1.95208 5.991 2.14808 5.779L2.58508 5.309V60.83C2.58508 61.38 3.03508 61.83 3.58508 61.83H11.1751C11.2051 61.84 11.2451 61.84 11.2751 61.84C11.3051 61.84 11.3451 61.84 11.3751 61.83H15.5951C15.6251 61.84 15.6651 61.84 15.6951 61.84C15.7351 61.84 15.7651 61.84 15.7951 61.83H21.2451C21.2751 61.84 21.3151 61.84 21.3451 61.84C21.3751 61.84 21.4151 61.84 21.4451 61.83H25.6751C25.7051 61.84 25.7351 61.84 25.7751 61.84C25.8051 61.84 25.8451 61.84 25.8751 61.83H31.3151C31.3451 61.84 31.3851 61.84 31.4151 61.84C31.4551 61.84 31.4851 61.84 31.5151 61.83H35.7451C35.7751 61.84 35.8151 61.84 35.8451 61.84C35.8751 61.84 35.9151 61.84 35.9451 61.83H41.3951C41.4251 61.84 41.4551 61.84 41.4951 61.84C41.5251 61.84 41.5651 61.84 41.5951 61.83H45.8151C45.8451 61.84 45.8751 61.84 45.9151 61.84C45.9451 61.84 45.9851 61.84 46.0151 61.83H51.4651C51.4951 61.84 51.5351 61.84 51.5651 61.84C51.5951 61.84 51.6351 61.84 51.6651 61.83H55.8851C55.9151 61.84 55.9551 61.84 55.9851 61.84C56.0151 61.84 56.0551 61.84 56.0851 61.83H60.0421L59.5701 62.269C59.1651 62.645 59.1421 63.278 59.5181 63.682C59.7151 63.894 59.9821 64.001 60.2501 64.001C60.4941 64.001 60.7381 63.913 60.9311 63.733L63.2501 61.578C63.2541 61.574 63.2611 61.573 63.2651 61.569C63.3151 61.519 63.3551 61.469 63.3951 61.409C63.4251 61.372 63.4481 61.323 63.4691 61.275C63.5241 61.166 63.5521 61.047 63.5631 60.924Z" fill="#BB2F2F" />
		<path d="M13.834 42.369C15.574 42.369 16.994 40.949 16.994 39.209C16.994 38.489 16.754 37.829 16.344 37.299L22.044 30.449C22.494 30.699 23.004 30.839 23.554 30.839C24.314 30.839 25.014 30.579 25.554 30.129L30.544 35.419C30.494 35.649 30.464 35.889 30.464 36.139C30.464 37.889 31.884 39.309 33.634 39.309C35.374 39.309 36.794 37.889 36.794 36.139C36.794 35.709 36.704 35.299 36.554 34.919L42.164 27.459C42.624 27.719 43.144 27.869 43.704 27.869C44.333 27.869 44.922 27.679 45.412 27.36L51.062 32.353C50.763 32.832 50.604 33.381 50.604 33.979C50.604 35.729 52.024 37.139 53.774 37.139C55.514 37.139 56.934 35.729 56.934 33.979C56.934 32.239 55.514 30.819 53.774 30.819C53.355 30.819 52.976 30.899 52.607 31.048L46.665 25.798C46.795 25.458 46.865 25.089 46.865 24.709C46.865 22.959 45.445 21.539 43.705 21.539C41.955 21.539 40.535 22.959 40.535 24.709C40.535 25.149 40.625 25.569 40.795 25.949L35.195 33.399C34.735 33.129 34.205 32.979 33.635 32.979C32.885 32.979 32.195 33.239 31.655 33.669L26.645 28.389C26.695 28.159 26.725 27.919 26.725 27.679C26.725 25.929 25.305 24.509 23.555 24.509C21.815 24.509 20.395 25.929 20.395 27.679C20.395 28.139 20.495 28.569 20.675 28.959L14.695 36.169C14.425 36.089 14.135 36.049 13.835 36.049C12.085 36.049 10.665 37.459 10.665 39.209C10.664 40.949 12.084 42.369 13.834 42.369Z" fill="#BB2F2F" />
		<path d="M40.964 7.81899C40.974 7.66899 40.984 7.50899 40.984 7.35899C40.984 5.61899 40.304 3.93899 39.044 2.58899C37.504 0.938993 35.334 -0.00100708 33.074 -0.00100708C30.944 -0.00100708 28.954 0.828993 27.454 2.33899C25.974 3.82899 25.164 5.79899 25.184 7.88899C25.214 12.309 30.924 20.409 33.064 23.289C35.144 20.419 40.654 12.409 40.964 7.81899ZM27.764 7.03899C27.764 4.10899 30.154 1.71899 33.084 1.71899C36.014 1.71899 38.394 4.10899 38.394 7.03899C38.394 9.96899 36.014 12.349 33.084 12.349C30.154 12.349 27.764 9.96899 27.764 7.03899Z" fill="#BB2F2F" />
		<path d="M36.3939 7.03899C36.3939 5.20899 34.9139 3.71899 33.0839 3.71899C31.2539 3.71899 29.7639 5.20899 29.7639 7.03899C29.7639 8.86899 31.2539 10.349 33.0839 10.349C34.9139 10.349 36.3939 8.86899 36.3939 7.03899Z" fill="#BB2F2F" />
	</g>
	<defs>
		<clipPath id="clip0_9_5056">
			<rect width="64" height="64" fill="white" />
		</clipPath>
	</defs>
</svg>
