<svg width="64" height="64" viewBox="0 0 64 64" fill="none" xmlns="http://www.w3.org/2000/svg">
	<path d="M58.5 36.2V12.7" stroke="#39F939" stroke-width="2" stroke-miterlimit="10" stroke-linecap="round" stroke-linejoin="round" />
	<path d="M1 12.7V52.6C1 55.2 3.1 57.3 5.7 57.3H41.8L1 12.7ZM58.5 12.7H1V5.4C1 3 3 1 5.4 1H54.1C56.5 1 58.5 3 58.5 5.4V12.7Z" stroke="#39F939" stroke-width="2" stroke-miterlimit="10" stroke-linecap="round" stroke-linejoin="round" />
	<path d="M7.9 9.20001C9.22548 9.20001 10.3 8.17026 10.3 6.90001C10.3 5.62975 9.22548 4.60001 7.9 4.60001C6.57452 4.60001 5.5 5.62975 5.5 6.90001C5.5 8.17026 6.57452 9.20001 7.9 9.20001Z" stroke="#39F939" stroke-width="2" stroke-miterlimit="10" stroke-linecap="round" stroke-linejoin="round" />
	<path d="M15.1 9.20001C16.4254 9.20001 17.5 8.17026 17.5 6.90001C17.5 5.62975 16.4254 4.60001 15.1 4.60001C13.7745 4.60001 12.7 5.62975 12.7 6.90001C12.7 8.17026 13.7745 9.20001 15.1 9.20001Z" stroke="#39F939" stroke-width="2" stroke-miterlimit="10" stroke-linecap="round" stroke-linejoin="round" />
	<path d="M22.3 9.20001C23.6255 9.20001 24.7 8.17026 24.7 6.90001C24.7 5.62975 23.6255 4.60001 22.3 4.60001C20.9745 4.60001 19.9 5.62975 19.9 6.90001C19.9 8.17026 20.9745 9.20001 22.3 9.20001Z" stroke="#39F939" stroke-width="2" stroke-miterlimit="10" stroke-linecap="round" stroke-linejoin="round" />
	<path d="M52.2999 8.40001H32.0999C31.1999 8.40001 30.5 7.70001 30.5 6.80001C30.5 5.90001 31.1999 5.20001 32.0999 5.20001H52.2999C53.1999 5.20001 53.9 5.90001 53.9 6.80001C53.9 7.70001 53.1999 8.40001 52.2999 8.40001ZM26 27.9C26 30.6 24.9 33 23 34.7C21.3 36.3 19.1 37.2 16.6 37.2C14.1 37.2 11.9 36.2 10.2 34.7C8.39995 33 7.19995 30.6 7.19995 27.9C7.19995 22.7 11.4 18.5 16.6 18.5C21.8 18.5 26 22.7 26 27.9Z" stroke="#39F939" stroke-width="2" stroke-miterlimit="10" stroke-linecap="round" stroke-linejoin="round" />
	<path d="M16.6 28.1C18.2016 28.1 19.5 26.8016 19.5 25.2C19.5 23.5984 18.2016 22.3 16.6 22.3C14.9983 22.3 13.7 23.5984 13.7 25.2C13.7 26.8016 14.9983 28.1 16.6 28.1Z" stroke="#39F939" stroke-width="2" stroke-miterlimit="10" stroke-linecap="round" stroke-linejoin="round" />
	<path d="M10.2 34.7C11.2 32.1 13.7 30.3 16.6 30.3C19.5 30.3 22 32.1 23 34.7" stroke="#39F939" stroke-width="2" stroke-miterlimit="10" stroke-linecap="round" stroke-linejoin="round" />
	<path d="M34.9 51.5H6.40002" stroke="#39F939" stroke-width="2" stroke-miterlimit="10" stroke-linecap="round" stroke-linejoin="round" />
	<path d="M33.3 43.4H6.40002" stroke="#39F939" stroke-width="2" stroke-miterlimit="10" stroke-linecap="round" stroke-linejoin="round" />
	<path d="M34.4 35.3H31.5" stroke="#39F939" stroke-width="2" stroke-miterlimit="10" stroke-linecap="round" stroke-linejoin="round" />
	<path d="M48.8 27.3H31.5" stroke="#39F939" stroke-width="2" stroke-miterlimit="10" stroke-linecap="round" stroke-linejoin="round" />
	<path d="M31.6 19.2H53.1" stroke="#39F939" stroke-width="2" stroke-miterlimit="10" stroke-linecap="round" stroke-linejoin="round" />
	<path d="M61.7001 37.2C62.4001 37.4 63 38 63 38.8V40.6C63 45.2 62.0001 49.8 59.9001 54C57.7001 58.3 54.7001 61.4 50.7001 62.9C50.3001 63 49.9 63 49.6 62.9C45.6 61.4 42.6001 58.3 40.4001 54C38.3001 49.9 37.3 45.3 37.3 40.6V38.8C37.3 38 37.8 37.4 38.6 37.2C43.2 36.2 46.6 34.3 49 31.6C49.6 30.9 50.8001 30.9 51.4001 31.6C53.7001 34.3 57.1001 36.2 61.7001 37.2Z" stroke="#39F939" stroke-width="2" stroke-miterlimit="10" stroke-linecap="round" stroke-linejoin="round" />
	<path d="M50.0999 59.4C47.3999 58.2 45.2 55.9 43.4 52.4C41.6 49 40.7 44.9 40.7 40.6V40.2C44.5 39.2 47.7 37.6 50.2 35.3C52.7 37.6 55.9 39.2 59.7 40.2V40.6C59.7 44.9 58.8 48.9 57 52.4C55 55.9 52.7999 58.2 50.0999 59.4Z" stroke="#39F939" stroke-width="2" stroke-miterlimit="10" stroke-linecap="round" stroke-linejoin="round" />
	<path d="M51.8 48.3L52.3 50.4C52.4 50.8 52.1 51.2 51.6 51.2H48.6C48.2 51.2 47.8 50.8 47.9 50.4L48.4 48.2C48.4 48 48.4 47.7 48.2 47.6C47.5 47 47.1 46.1 47.3 45.1C47.5 43.9 48.5 42.9 49.7 42.8C51.4 42.6 52.9 43.9 52.9 45.6C52.9 46.4 52.5 47.2 52 47.7C51.8 47.9 51.7 48.1 51.8 48.3Z" stroke="#39F939" stroke-width="2" stroke-miterlimit="10" stroke-linecap="round" stroke-linejoin="round" />
</svg>
