<svg width="35" height="35" viewBox="0 0 35 35" fill="none" xmlns="http://www.w3.org/2000/svg">
	<path d="M29.07 16.57C28.7385 16.57 28.4205 16.4383 28.1861 16.2039C27.9517 15.9695 27.82 15.6515 27.82 15.32V11.79C27.82 6.79 23.2 2.79 17.52 2.79C11.84 2.79 7.21997 6.84 7.21997 11.79V15.32C7.21997 15.6515 7.08827 15.9695 6.85385 16.2039C6.61943 16.4383 6.30149 16.57 5.96997 16.57C5.63845 16.57 5.32051 16.4383 5.08609 16.2039C4.85167 15.9695 4.71997 15.6515 4.71997 15.32V11.79C4.71997 5.43 10.47 0.25 17.52 0.25C24.57 0.25 30.32 5.43 30.32 11.79V15.32C30.3213 15.4845 30.2899 15.6477 30.2275 15.7999C30.1652 15.9522 30.0732 16.0905 29.9568 16.2069C29.8405 16.3232 29.7022 16.4152 29.5499 16.4776C29.3976 16.5399 29.2345 16.5713 29.07 16.57V16.57Z" fill="#F72EF7" />
	<path d="M25.69 28.33C25.3585 28.33 25.0405 28.1983 24.8061 27.9639C24.5717 27.7295 24.44 27.4115 24.44 27.08V15.21C24.4504 14.8855 24.5867 14.5777 24.82 14.3519C25.0533 14.126 25.3653 13.9998 25.69 14C30 14 33.51 17.23 33.51 21.19C33.51 25.15 30 28.33 25.69 28.33ZM26.94 16.59V25.7C28.0344 25.5188 29.0339 24.9687 29.7724 24.141C30.511 23.3133 30.9441 22.2579 31 21.15C30.9464 20.0404 30.5142 18.9826 29.7754 18.1529C29.0367 17.3232 28.036 16.7716 26.94 16.59ZM9.30999 28.33C4.99999 28.33 1.48999 25.11 1.48999 21.15C1.48999 17.19 4.99999 14 9.30999 14C9.64151 14 9.95945 14.1317 10.1939 14.3661C10.4283 14.6005 10.56 14.9185 10.56 15.25V27.08C10.56 27.4115 10.4283 27.7295 10.1939 27.9639C9.95945 28.1983 9.64151 28.33 9.30999 28.33V28.33ZM8.05999 16.59C6.964 16.7716 5.96329 17.3232 5.22455 18.1529C4.48581 18.9826 4.05363 20.0404 3.99999 21.15C4.05585 22.2579 4.48903 23.3133 5.22758 24.141C5.96613 24.9687 6.9656 25.5188 8.05999 25.7V16.59Z" fill="#F72EF7" />
	<path d="M25.28 32.4H21.14C20.8085 32.4 20.4906 32.2683 20.2561 32.0339C20.0217 31.7995 19.89 31.4815 19.89 31.15C19.89 30.8185 20.0217 30.5005 20.2561 30.2661C20.4906 30.0317 20.8085 29.9 21.14 29.9H25.28C25.9271 29.9 26.5478 29.6429 27.0054 29.1853C27.4629 28.7278 27.72 28.1071 27.72 27.46V26.91C27.72 26.5785 27.8517 26.2605 28.0861 26.0261C28.3206 25.7917 28.6385 25.66 28.97 25.66C29.3015 25.66 29.6195 25.7917 29.8539 26.0261C30.0883 26.2605 30.22 26.5785 30.22 26.91V27.46C30.22 28.7702 29.6996 30.0267 28.7731 30.9531C27.8467 31.8795 26.5902 32.4 25.28 32.4V32.4Z" fill="#F72EF7" />
	<path d="M19 34.75H16.53C15.6229 34.75 14.7531 34.3897 14.1117 33.7483C13.4703 33.1069 13.11 32.237 13.11 31.33V31.19C13.1126 30.2847 13.4741 29.4174 14.1152 28.7782C14.7563 28.1389 15.6247 27.78 16.53 27.78H19C19.9044 27.78 20.7717 28.1393 21.4112 28.7788C22.0507 29.4183 22.41 30.2856 22.41 31.19V31.33C22.41 32.2353 22.051 33.1037 21.4118 33.7448C20.7726 34.3859 19.9053 34.7474 19 34.75ZM16.55 30.28C16.3077 30.28 16.0752 30.3755 15.903 30.5459C15.7307 30.7163 15.6326 30.9477 15.63 31.19V31.33C15.63 31.574 15.7269 31.808 15.8994 31.9805C16.072 32.1531 16.306 32.25 16.55 32.25H19C19.2422 32.2474 19.4737 32.1493 19.6441 31.977C19.8144 31.8048 19.91 31.5723 19.91 31.33V31.19C19.91 30.9487 19.8141 30.7172 19.6435 30.5465C19.4728 30.3759 19.2413 30.28 19 30.28H16.55Z" fill="#F72EF7" />
</svg>
