<svg width="64" height="64" viewBox="0 0 64 64" fill="none" xmlns="http://www.w3.org/2000/svg">
	<g clip-path="url(#clip0_6_29)">
		<path d="M58 5H6C4.4087 5 2.88258 5.63214 1.75736 6.75736C0.632141 7.88258 0 9.4087 0 11L0 53C0 54.5913 0.632141 56.1174 1.75736 57.2426C2.88258 58.3679 4.4087 59 6 59H58C59.5913 59 61.1174 58.3679 62.2426 57.2426C63.3679 56.1174 64 54.5913 64 53V11C64 9.4087 63.3679 7.88258 62.2426 6.75736C61.1174 5.63214 59.5913 5 58 5ZM54 11H58V15H54V11ZM48 11H52V15H48V11ZM42 11H46V15H42V11ZM60 53C60 53.5304 59.7893 54.0391 59.4142 54.4142C59.0391 54.7893 58.5304 55 58 55H6C5.46957 55 4.96086 54.7893 4.58579 54.4142C4.21071 54.0391 4 53.5304 4 53V21H60V53Z" fill="#FC3C26" />
		<path d="M22.74 25.47L11.54 36.67C11.1827 37.0514 10.9888 37.5575 11 38.08C10.9984 38.3432 11.0489 38.6041 11.1484 38.8478C11.248 39.0915 11.3946 39.3131 11.58 39.5L22.78 50.69L25.61 47.87L15.82 38.08L25.61 28.3L22.74 25.47ZM41.26 25.47L38.43 28.3L48.22 38.08L38.43 47.87L41.26 50.69L52.46 39.5C52.8197 39.1161 53.0137 38.6059 53 38.08C53.0004 37.5519 52.7919 37.045 52.42 36.67L41.26 25.47Z" fill="#FC3C26" />
		<path d="M32.5374 25.607L27.5364 50.6118L31.4587 51.3963L36.4597 26.3915L32.5374 25.607Z" fill="#FC3C26" />
	</g>
	<defs>
		<clipPath id="clip0_6_29">
			<rect width="64" height="64" fill="white" />
		</clipPath>
	</defs>
</svg>
